<svg id="Layer_1" data-name="Layer 1" xmlns="http://www.w3.org/2000/svg" viewBox="0 0 354.57 134.7"><defs><style>.cls-1{fill:#328cda}.cls-2{fill:#2a70ae}</style></defs><path class="cls-1" d="M400.55 357a6.57 6.57 0 00-5-1.85h-15.39a5.28 5.28 0 00-4 1.65 4.84 4.84 0 00-1.65 3.8v.4l24.14 76.82v-.05a7.54 7.54 0 002.7 4 6.87 6.87 0 004 1.6h-.05a8.86 8.86 0 001.2.05h18.94a10.88 10.88 0 001.25-.05 6.86 6.86 0 003.9-1.6 7.19 7.19 0 002.6-4.24l23.79-75a6 6 0 00.3-2 5.17 5.17 0 00-1.45-3.65l-.05-.1a5.36 5.36 0 00-4-1.65h-15.39a6.68 6.68 0 00-4.85 1.7 6.19 6.19 0 00-2.35 3.6L416 404.07l-13.2-43.63v-.05h-.05a7.52 7.52 0 00-2.35-3.5l.15.1zm-36.03-1.86h-15.45a6.87 6.87 0 00-4.75 1.65 7.36 7.36 0 00-2.44 3.65l-13.25 43.63-13.09-43.63-.05-.05v-.05a7.26 7.26 0 00-2.4-3.45l.15.1a6.52 6.52 0 00-4.95-1.85h-15.44a5.18 5.18 0 00-3.9 1.65 4.94 4.94 0 00-1.7 3.8v.5l24.19 76.77a7.49 7.49 0 002.6 3.89 7.11 7.11 0 005.14 1.7h18.95a7.69 7.69 0 005.1-1.6v-.05a7.21 7.21 0 002.54-3.94.18.18 0 00.05-.15l23.94-75.47.15-1.35v-.3a5.17 5.17 0 00-1.45-3.65h.05a5 5 0 00-4-1.8zm-.5 5.75z" transform="translate(-102.71 -350.59)"/><path class="cls-2" d="M432.34 456.4a10.8 10.8 0 00-3.8 8.44v7.25c.2 3.75 1.45 6.6 3.75 8.6s5.45 3 9.6 3a17.47 17.47 0 007-1.3l.05-.05a10.74 10.74 0 004.75-4 11.59 11.59 0 001.3-3 13.56 13.56 0 00.4-3.3v-4.55a2 2 0 00-.4-1.2 1.09 1.09 0 00-.2-.25 1.89 1.89 0 00-1.4-.6h-10a1.89 1.89 0 00-1.39.6 2 2 0 00-.6 1.45v3.05a2 2 0 00.6 1.45 1.87 1.87 0 001.39.55h2.5a3.43 3.43 0 01-.95 2.45h-.05a4.4 4.4 0 01-2.94.9c-2.45 0-3.75-1.35-3.8-4V465c.1-2.44 1.35-3.69 3.75-3.69a4 4 0 012.34.6 3.4 3.4 0 011.15 1.4l.05.15.05.1a4.6 4.6 0 00.7.65h.05a1.9 1.9 0 001.1.3h6.1a1.81 1.81 0 001.2-.4h.05l.05-.1a1.33 1.33 0 00.25-.3 1.8 1.8 0 00.3-1 5.23 5.23 0 00-.3-1.8 8 8 0 00-1.45-2.7 11 11 0 00-4.7-3.45 17.22 17.22 0 00-6.94-1.3c-4.05 0-7.2 1-9.55 2.95zm21.09 6.15h-.05l.05-.05v.05zm-6.3-.1l.2.1h-.05c0-.05-.1-.05-.15-.1zm-41.43-8.6h-4.4a2 2 0 00-1.45.6 1.88 1.88 0 00-.55 1.4v25.49a2 2 0 002 2h4.95a1.85 1.85 0 001.45-.55 1.89 1.89 0 00.6-1.4v-10.5l7.4 11.3-.05-.05a2.25 2.25 0 002.2 1.2h4.44a1.88 1.88 0 001.4-.55 1.85 1.85 0 00.55-1.45v-25.49a1.54 1.54 0 00-.6-1.45 2 2 0 00-1.35-.55h-5a2.05 2.05 0 00-2 2v10.94l-7.4-11.69a2.4 2.4 0 00-2.2-1.25zm.55 27.44zM394.2 455.8a1.89 1.89 0 00-.6-1.4 1.84 1.84 0 00-1.39-.55h-5.6a2 2 0 00-1.25.45l-.1.05h-.05a1.89 1.89 0 00-.6 1.4v25.54a2 2 0 002 2h5.6a1.62 1.62 0 001.49-.6 2 2 0 00.5-1.35V455.8zm-36.63-1.95a2 2 0 00-1.45.6 1.88 1.88 0 00-.55 1.4v25.49a2 2 0 002 2h5.35a1.85 1.85 0 001.45-.55 1.89 1.89 0 00.6-1.4v-7.6h2.15l4 7.95.05.05a2.54 2.54 0 002.5 1.55h5.5a1.62 1.62 0 001.4-.6 1.79 1.79 0 00.45-1.2v-.15l-.2-.65v-.05l-.05-.05-4.8-8.65a9.25 9.25 0 003-2.9 9.07 9.07 0 001.4-5.19 8.87 8.87 0 00-3.25-7.4c-2.05-1.75-5-2.6-8.75-2.6zm7.4 12.09v-4.44h3.35a2.65 2.65 0 011.84.6 2.44 2.44 0 01.6 1.7 2.14 2.14 0 01-.55 1.54v.05a2.9 2.9 0 01-1.84.55zm-2.05 15.35h.03z" transform="translate(-102.71 -350.59)"/><path class="cls-1" d="M211.78 356.94l-.05.05a6 6 0 00-1.65 4.2v76.32a5.55 5.55 0 001.8 4.24l.05.05v.05a5.74 5.74 0 004.05 1.6H233a5.76 5.76 0 004.3-1.7l.1-.1v-.1a5.82 5.82 0 001.5-4v-22.4h10.39c10.6 0 19-2.24 25.14-6.74l-.05.05c.25-.2.55-.4.85-.65l-.1.1c6.6-4.95 9.9-12.4 9.9-22.44 0-8.75-2.5-15.65-7.55-20.65a24.2 24.2 0 00-2.35-2h.05c-6.25-5.05-14.84-7.6-25.89-7.6H216a5.74 5.74 0 00-4.2 1.75l-.05.05zm42.53 22.94h.05a8.24 8.24 0 011.75 5.4 7.28 7.28 0 01-1.8 5.29h-.05a8.14 8.14 0 01-5.5 1.7h-10.19v-14.19h10.19q3.75 0 5.55 1.8zM216 437.41h.1v.05-.05h-.15zm-76.34-63.08q-10 30.81-11 43.63a107.47 107.47 0 002.9 34.09c1.75 7.15 6.65 18.19 14.69 33.24a43.38 43.38 0 0043.09-48.88 61.87 61.87 0 00-1.55-7.45 93.55 93.55 0 00-7.5-18.39q-6.08-11.77-18.59-29.24-9.08-12.6-15.45-30.74c-3.44 13.05-5.64 20.94-6.54 23.74zM179 434.16a3.14 3.14 0 010 4.3 3 3 0 01-2.2.9 3.05 3.05 0 010-6.1 3 3 0 012.2.9zm-4.7 11.39a2.51 2.51 0 015 .4c-1.05 13.35-8.1 22.34-21 27.09a2.43 2.43 0 01-3.2-1.5 2.3 2.3 0 01.1-1.9 2.26 2.26 0 011.4-1.3c10.9-4 16.79-11.59 17.74-22.79z" transform="translate(-102.71 -350.59)"/><path d="M179.89 436.31a3 3 0 00-.85-2.15 3 3 0 00-2.2-.9 3.05 3.05 0 000 6.1 3 3 0 002.2-.9 3 3 0 00.85-2.15zm-4.65 7.54a2.31 2.31 0 00-.9 1.7c-1 11.2-6.84 18.8-17.74 22.79a2.26 2.26 0 00-1.4 1.3 2.3 2.3 0 00-.1 1.9 2.43 2.43 0 003.2 1.5c12.94-4.75 20-13.74 21-27.09a2.48 2.48 0 00-4.1-2.1z" transform="translate(-102.71 -350.59)" fill="#fff"/><path class="cls-2" d="M128.61 418q1-12.81 11-43.63c.9-2.8 3.1-10.69 6.54-23.74q-5.91 13.65-30.43 52.88-9.22 14.85-12 28.14a33 33 0 00-1 10.29 43.36 43.36 0 0043.38 43.39c-8-15.05-12.94-26.09-14.69-33.24a107.47 107.47 0 01-2.9-34.09zm189.87 40.2a10.91 10.91 0 00-4.69-3.45 17.24 17.24 0 00-7-1.3c-4 0-7.15 1-9.5 2.95a10.8 10.8 0 00-3.8 8.44v7.25a11.31 11.31 0 003.8 8.6c2.2 2 5.4 3 9.55 3a17.49 17.49 0 007-1.3v-.05h.05a10.74 10.74 0 004.74-4 11 11 0 001.7-6.3v-4.55a1.81 1.81 0 00-.5-1.35 1.57 1.57 0 00-1.5-.7h-10a1.89 1.89 0 00-1.4.6 2 2 0 00-.6 1.45v3.05a2 2 0 00.6 1.45 1.88 1.88 0 001.4.55h2.5a3.63 3.63 0 01-.9 2.45h-.05a4.66 4.66 0 01-3 .9c-2.45 0-3.7-1.35-3.75-4V465c.1-2.44 1.35-3.69 3.7-3.69a4 4 0 012.35.6 3.49 3.49 0 011.2 1.5 1.84 1.84 0 00.75.8h.05a1.9 1.9 0 001.1.3h6.09a1.81 1.81 0 001.2-.4h.05l.05-.1a1.82 1.82 0 00.55-1.3 7.28 7.28 0 00-1.75-4.5zm-6.24 4.35v.05l-.05-.05zm6.14 0h-.05l.05-.05v.05zm-19.79-4.65zm12.65 18.54l-.05.05v-.05zM280.9 454.4a1.68 1.68 0 00-.65 1.45v10.94l-7.4-11.69a2.4 2.4 0 00-2.2-1.25h-4.39a2 2 0 00-1.45.6 1.88 1.88 0 00-.55 1.4v25.49a2 2 0 002 2h4.94a1.85 1.85 0 001.45-.55 1.89 1.89 0 00.6-1.4v-10.5l7.4 11.3v-.05a2.25 2.25 0 002.2 1.2h4.45a1.88 1.88 0 001.4-.55 1.85 1.85 0 00.55-1.45v-25.49a1.54 1.54 0 00-.6-1.45 2 2 0 00-1.35-.55h-5a1.89 1.89 0 00-1.4.6v-.05zm1.3 1.55l.05-.1-.05.1zm-10.95 25.34h-.05zm-33.38-26.84v-.05a1.68 1.68 0 00-.65 1.45v25.49a2 2 0 002 2h18.84a1.85 1.85 0 001.45-.55 1.88 1.88 0 00.55-1.4v-3.9a1.54 1.54 0 00-.6-1.45 2.05 2.05 0 00-1.4-.55h-11.7v-3.1H257a1.89 1.89 0 001.4-.6 2 2 0 00.6-1.45v-3.55a2 2 0 00-.6-1.45 1.89 1.89 0 00-1.4-.6h-10.59v-3h11.4a2 2 0 002-1.95v-3.9a1.68 1.68 0 00-.65-1.45v.05a1.89 1.89 0 00-1.4-.6h-18.49a1.89 1.89 0 00-1.4.6zm1.35 1.5l.05-.1-.05.1zm18.69 0h-.05l-.05-.1.1.1zM231.62 469a9.56 9.56 0 001.45-5.19 8.89 8.89 0 00-3.3-7.4c-2.05-1.75-5-2.6-8.75-2.6h-10.79a2.05 2.05 0 00-2 2v25.49a2 2 0 002 2h5.35a1.85 1.85 0 001.45-.55 1.89 1.89 0 00.6-1.4v-7.6h2.14l4 7.95a2.52 2.52 0 002.5 1.6h5.55a1.66 1.66 0 001.25-.5 1.73 1.73 0 00.55-1.3v-.1l-.15-.7-4.9-8.8a10.2 10.2 0 003-2.85zm-1.7-1.1h.08v.1l-.05-.05zm-7.15-5.84a2.44 2.44 0 01.6 1.7 2.14 2.14 0 01-.55 1.54l-.05.05v.05a2.73 2.73 0 01-1.85.5h-3.34v-4.4H221a2.44 2.44 0 011.8.6zm-7.19 19.19zm16.19.1a.18.18 0 00-.05.15l-.05-.1c.05-.05.05-.05.1-.05zm119.15-21.8l-.3.05-1.2.45a9.86 9.86 0 00-4.2-4.7 14.65 14.65 0 00-7.64-1.9c-3.95 0-7.05 1-9.4 3.05s-3.7 4.85-3.85 8.69v4.6a1.79 1.79 0 00-.55.2l-.1.05a2.23 2.23 0 00-.95.75h-.05a1.89 1.89 0 00-.4 1.35v3.1a1.46 1.46 0 00.6 1.35 1.79 1.79 0 001.2.45h.2l.15-.05.95-.35a9.49 9.49 0 004.15 5.05 14.51 14.51 0 008.1 2c4 0 7.14-.95 9.44-2.9s3.6-4.85 3.75-8.7v-5.35l.55-.25a2.29 2.29 0 001.1-.8 2.15 2.15 0 00.3-1.29v-3a1.52 1.52 0 00-.5-1.25l-.1-.1a1.65 1.65 0 00-1.2-.45zM334 466v-.65a4.74 4.74 0 011.05-3.14H335a3.61 3.61 0 012.55-.9 3.66 3.66 0 012.25.7 3.21 3.21 0 01.9 1.35L334 466zm6.1 8.85a3.43 3.43 0 01-2.55.95 3.62 3.62 0 01-2.45-.8h.05a3.94 3.94 0 01-1-1.8l7-2.75-.05 1.3a4.79 4.79 0 01-1 3.1z" transform="translate(-102.71 -350.59)"/></svg>