<svg data-name="Layer 1" xmlns="http://www.w3.org/2000/svg" viewBox="0 0 944 944"><path d="M944 472c0 260.68-211.32 472-472 472S0 732.68 0 472 211.32 0 472 0s472 211.32 472 472z" fill="#ebebeb"/><path d="M700.69 314.23L631.27 641.6c-5.24 23.11-18.89 28.86-38.3 18L487.2 581.63l-51 49.09c-5.65 5.64-10.38 10.37-21.26 10.37l7.6-107.72 196-177.14c8.52-7.6-1.85-11.81-13.25-4.21L363 504.61 258.62 472c-22.7-7.09-23.11-22.69 4.72-33.58l408.08-157.25c18.9-7.09 35.43 4.21 29.27 33.06z" fill="none" stroke="#328cda" stroke-miterlimit="10" stroke-width="30"/></svg>