<svg width="944" height="944" viewBox="0 0 944 944" fill="none" xmlns="http://www.w3.org/2000/svg"><path d="M944 472c0 260.678-211.322 472-472 472S0 732.678 0 472 211.322 0 472 0s472 211.322 472 472z" fill="#328CDA"/><path d="M700.689 314.231l-69.417 327.37c-5.237 23.105-18.895 28.854-38.304 17.972L487.2 581.631l-51.034 49.086c-5.646 5.647-10.371 10.372-21.256 10.372l7.598-107.722L618.539 356.23c8.523-7.598-1.848-11.809-13.247-4.21L362.95 504.614 258.619 471.96c-22.694-7.086-23.104-22.695 4.723-33.579l408.081-157.215c18.893-7.085 35.427 4.209 29.266 33.065z" fill="#fff"/></svg>