<svg id="Layer_1" data-name="Layer 1" xmlns="http://www.w3.org/2000/svg" viewBox="0 0 944 944"><defs><style>.cls-1{fill:#ebebeb;}.cls-2{fill:none;stroke:#328cda;stroke-miterlimit:10;stroke-width:30px;}</style></defs><title>telegram_head</title><path class="cls-1" d="M944,472c0,260.68-211.32,472-472,472S0,732.68,0,472,211.32,0,472,0,944,211.32,944,472Z" transform="translate(0 0)"/><path class="cls-2" d="M700.69,314.23,631.27,641.6c-5.24,23.11-18.89,28.86-38.3,18L487.2,581.63l-51,49.09c-5.65,5.64-10.38,10.37-21.26,10.37l7.6-107.72,196-177.14c8.52-7.6-1.85-11.81-13.25-4.21L363,504.61,258.62,472c-22.7-7.09-23.11-22.69,4.72-33.58L671.42,281.17C690.32,274.08,706.85,285.38,700.69,314.23Z" transform="translate(0 0)"/></svg>