<svg width="944" height="944" viewBox="0 0 944 944" fill="none" xmlns="http://www.w3.org/2000/svg">
<path d="M944 472C944 732.678 732.678 944 472 944C211.322 944 0 732.678 0 472C0 211.322 211.322 0 472 0C732.678 0 944 211.322 944 472Z" fill="#328CDA"/>
<path d="M700.689 314.231L631.272 641.601C626.035 664.706 612.377 670.455 592.968 659.573L487.2 581.631L436.166 630.717C430.52 636.364 425.795 641.089 414.91 641.089L422.508 533.367L618.539 356.23C627.062 348.632 616.691 344.421 605.292 352.02L362.95 504.614L258.619 471.96C235.925 464.874 235.515 449.265 263.342 438.381L671.423 281.166C690.316 274.081 706.85 285.375 700.689 314.231Z" fill="white"/>
</svg>
