<svg id="Layer_1" data-name="Layer 1" xmlns="http://www.w3.org/2000/svg" viewBox="0 0 86.93 134.7"><defs><style>.cls-1{fill:#328cda;}.cls-2{fill:#fff;}.cls-3{fill:#2a70ae;}</style></defs><title>ico_logo</title><path class="cls-1" d="M57.3,37.75q-10,30.81-11,43.63a107.74,107.74,0,0,0,2.9,34.09c1.75,7.15,6.65,18.19,14.7,33.24A42,42,0,0,0,94.59,136a43.43,43.43,0,0,0,12.34-36.18,61.87,61.87,0,0,0-1.55-7.45A93.8,93.8,0,0,0,97.88,74Q91.82,62.22,79.29,44.75,70.21,32.15,63.85,14C60.4,27.06,58.2,35,57.3,37.75ZM96.68,97.58a3.05,3.05,0,0,1-2.19,5.2,3.05,3.05,0,0,1,0-6.1,3,3,0,0,1,2.19.9ZM92,109a2.5,2.5,0,0,1,5,.4c-1,13.35-8.09,22.34-21,27.09a2.43,2.43,0,0,1-3.2-1.5,2.3,2.3,0,0,1,.1-1.9,2.26,2.26,0,0,1,1.4-1.3Q90.59,125.78,92,109Z" transform="translate(-20.35 -14.01)"/><path class="cls-2" d="M97.53,99.73a3,3,0,0,0-3-3,3.05,3.05,0,0,0,0,6.1,3,3,0,0,0,3-3Z" transform="translate(-20.35 -14.01)"/><path class="cls-2" d="M92.89,107.27A2.31,2.31,0,0,0,92,109q-1.42,16.8-17.75,22.79a2.26,2.26,0,0,0-1.4,1.3,2.3,2.3,0,0,0-.1,1.9,2.43,2.43,0,0,0,3.2,1.5c13-4.75,20-13.74,21-27.09a2.33,2.33,0,0,0-.6-1.8,2.29,2.29,0,0,0-1.69-.9,2.33,2.33,0,0,0-1.8.6Z" transform="translate(-20.35 -14.01)"/><path class="cls-3" d="M46.25,81.38q1-12.81,11-43.63C58.2,35,60.4,27.06,63.85,14Q57.93,27.66,33.41,66.89,24.19,81.74,21.41,95a33.28,33.28,0,0,0-.94,10.3A41.81,41.81,0,0,0,33.16,136a42,42,0,0,0,30.69,12.7c-8.05-15.05-13-26.09-14.7-33.24a107.7,107.7,0,0,1-2.9-34.08Z" transform="translate(-20.35 -14.01)"/></svg>